<svg xmlns="http://www.w3.org/2000/svg" viewBox="0 0 1600 520" fill="none">
  <defs>
    <linearGradient id="fade-x" x1="0" y1="0" x2="1600" y2="0">
      <stop offset="0" stop-color="white" stop-opacity="0"/>
      <stop offset="0.24" stop-color="white" stop-opacity="0.05"/>
      <stop offset="0.46" stop-color="white" stop-opacity="0.46"/>
      <stop offset="0.68" stop-color="white" stop-opacity="0.88"/>
      <stop offset="1" stop-color="white"/>
    </linearGradient>
    <linearGradient id="fade-y" x1="0" y1="0" x2="0" y2="520">
      <stop offset="0" stop-color="white"/>
      <stop offset="0.56" stop-color="white" stop-opacity="0.96"/>
      <stop offset="0.76" stop-color="white" stop-opacity="0.62"/>
      <stop offset="1" stop-color="white" stop-opacity="0"/>
    </linearGradient>
    <linearGradient id="pitch" x1="950" y1="270" x2="1030" y2="505">
      <stop stop-color="#183A23"/>
      <stop offset="1" stop-color="#071A10"/>
    </linearGradient>
    <linearGradient id="horizon" x1="0" y1="250" x2="0" y2="390">
      <stop stop-color="#14281C" stop-opacity="0.12"/>
      <stop offset="1" stop-color="#0B1B12" stop-opacity="0.9"/>
    </linearGradient>
    <radialGradient id="light-a">
      <stop offset="0" stop-color="#F5FFE2" stop-opacity="0.95"/>
      <stop offset="0.1" stop-color="#DFFFA0" stop-opacity="0.55"/>
      <stop offset="0.34" stop-color="#B7DA8D" stop-opacity="0.16"/>
      <stop offset="1" stop-color="#9CC16F" stop-opacity="0"/>
    </radialGradient>
    <radialGradient id="light-b">
      <stop offset="0" stop-color="#F7FFF0" stop-opacity="0.82"/>
      <stop offset="0.12" stop-color="#E2F7C4" stop-opacity="0.42"/>
      <stop offset="0.42" stop-color="#B9D294" stop-opacity="0.1"/>
      <stop offset="1" stop-color="#A6C982" stop-opacity="0"/>
    </radialGradient>
    <mask id="mask-x"><rect width="1600" height="520" fill="url(#fade-x)"/></mask>
    <mask id="mask-y"><rect width="1600" height="520" fill="url(#fade-y)"/></mask>
  </defs>
  <g mask="url(#mask-x)"><g mask="url(#mask-y)">
    <path d="M470 302L500 286L520 296L545 271L565 289L595 260L620 283L648 252L678 278L710 247L740 274L770 244L802 270L835 240L868 266L900 237L935 266L968 239L1000 270L1038 244L1074 270L1110 247L1146 274L1180 249L1216 277L1252 250L1292 278L1330 249L1368 275L1405 250L1445 278L1480 252L1520 276L1560 250L1600 268V352H470Z" fill="#07120C" opacity="0.92"/>
    <rect x="460" y="294" width="1140" height="92" fill="url(#horizon)"/>
    <path d="M510 344L1600 292V520H360L510 344Z" fill="url(#pitch)" opacity="0.92"/>
    <path d="M700 335L850 327L710 520H520Z" fill="#255032" opacity="0.16"/>
    <path d="M1010 319L1155 312L1105 520H925Z" fill="#285636" opacity="0.13"/>
    <path d="M1310 303L1445 297L1510 520H1330Z" fill="#2C5D3B" opacity="0.12"/>
    <path d="M565 367L1600 324" stroke="#DCEBD8" stroke-opacity="0.22" stroke-width="2"/>
    <path d="M633 414L1600 385" stroke="#DCEBD8" stroke-opacity="0.13" stroke-width="1.5"/>
    <path d="M920 350L913 520" stroke="#DCEBD8" stroke-opacity="0.13" stroke-width="1.5"/>
    <ellipse cx="920" cy="388" rx="84" ry="24" stroke="#DCEBD8" stroke-opacity="0.1" stroke-width="1.5"/>
    <g stroke="#DCEBD8" stroke-opacity="0.3" stroke-width="2">
      <path d="M1370 309V350"/><path d="M1450 305V347"/><path d="M1370 309L1450 305"/><path d="M1370 350L1450 347"/><path d="M1370 309L1355 318V355"/><path d="M1450 305L1462 313V351"/>
    </g>
    <g stroke="#839187" stroke-opacity="0.52" stroke-width="3"><path d="M1000 116V319"/><path d="M1250 90V307"/><path d="M1480 108V297"/></g>
    <g fill="#D7E2D6" opacity="0.72"><rect x="972" y="113" width="56" height="5" rx="2"/><rect x="1220" y="87" width="60" height="5" rx="2"/><rect x="1452" y="105" width="56" height="5" rx="2"/></g>
    <circle cx="1000" cy="116" r="160" fill="url(#light-a)"/><circle cx="1250" cy="90" r="190" fill="url(#light-a)"/><circle cx="1480" cy="108" r="150" fill="url(#light-b)"/>
    <ellipse cx="1110" cy="350" rx="245" ry="45" fill="#B8D98C" opacity="0.055"/><ellipse cx="1440" cy="331" rx="210" ry="36" fill="#D0E9AA" opacity="0.05"/>
  </g></g>
</svg>
